<mxfile host="app.diagrams.net" agent="Mozilla/5.0 (Windows NT 10.0; Win64; x64) AppleWebKit/537.36 (KHTML, like Gecko) Chrome/130.0.0.0 Safari/537.36" version="24.8.6">
  <diagram name="Page-1" id="xVEsvCJuy0nL_LQz196c">
    <mxGraphModel dx="1613" dy="706" grid="1" gridSize="10" guides="1" tooltips="1" connect="1" arrows="1" fold="1" page="1" pageScale="1" pageWidth="827" pageHeight="1169" math="0" shadow="0">
      <root>
        <mxCell id="0" />
        <mxCell id="1" parent="0" />
        <mxCell id="OT2yoqdwoyVvfP5w_B3d-18" style="edgeStyle=orthogonalEdgeStyle;rounded=0;orthogonalLoop=1;jettySize=auto;html=1;exitX=0.5;exitY=1;exitDx=0;exitDy=0;entryX=0.5;entryY=0;entryDx=0;entryDy=0;" edge="1" parent="1" source="OT2yoqdwoyVvfP5w_B3d-1" target="OT2yoqdwoyVvfP5w_B3d-17">
          <mxGeometry relative="1" as="geometry" />
        </mxCell>
        <mxCell id="OT2yoqdwoyVvfP5w_B3d-1" value="User Interface&lt;div&gt;(Tkinter GUI)&lt;/div&gt;" style="rounded=0;whiteSpace=wrap;html=1;" vertex="1" parent="1">
          <mxGeometry x="110" y="40" width="190" height="75" as="geometry" />
        </mxCell>
        <mxCell id="OT2yoqdwoyVvfP5w_B3d-16" style="edgeStyle=orthogonalEdgeStyle;rounded=0;orthogonalLoop=1;jettySize=auto;html=1;" edge="1" parent="1" source="OT2yoqdwoyVvfP5w_B3d-2" target="OT2yoqdwoyVvfP5w_B3d-15">
          <mxGeometry relative="1" as="geometry" />
        </mxCell>
        <mxCell id="OT2yoqdwoyVvfP5w_B3d-2" value="Title Search&lt;div&gt;Retrieve Document Titles&lt;br&gt;&lt;div&gt;(Text Entry)&lt;/div&gt;&lt;/div&gt;" style="rounded=0;whiteSpace=wrap;html=1;" vertex="1" parent="1">
          <mxGeometry x="280" y="360" width="190" height="70" as="geometry" />
        </mxCell>
        <mxCell id="OT2yoqdwoyVvfP5w_B3d-8" style="edgeStyle=orthogonalEdgeStyle;rounded=0;orthogonalLoop=1;jettySize=auto;html=1;exitX=0.5;exitY=1;exitDx=0;exitDy=0;" edge="1" parent="1" source="OT2yoqdwoyVvfP5w_B3d-3" target="OT2yoqdwoyVvfP5w_B3d-6">
          <mxGeometry relative="1" as="geometry" />
        </mxCell>
        <mxCell id="OT2yoqdwoyVvfP5w_B3d-3" value="Content Search&lt;div&gt;(Text) Entry&lt;/div&gt;&lt;div&gt;-User Inputs word&lt;/div&gt;&lt;div&gt;-Content Search&lt;/div&gt;&lt;div&gt;&lt;br&gt;&lt;/div&gt;" style="rounded=0;whiteSpace=wrap;html=1;" vertex="1" parent="1">
          <mxGeometry x="70" y="360" width="200" height="70" as="geometry" />
        </mxCell>
        <mxCell id="OT2yoqdwoyVvfP5w_B3d-6" value="LinkedListDict&lt;div&gt;(Search Key)&lt;/div&gt;" style="rounded=0;whiteSpace=wrap;html=1;" vertex="1" parent="1">
          <mxGeometry x="70" y="480" width="190" height="60" as="geometry" />
        </mxCell>
        <mxCell id="OT2yoqdwoyVvfP5w_B3d-12" style="edgeStyle=orthogonalEdgeStyle;rounded=0;orthogonalLoop=1;jettySize=auto;html=1;exitX=0;exitY=0.5;exitDx=0;exitDy=0;" edge="1" parent="1" source="OT2yoqdwoyVvfP5w_B3d-11" target="OT2yoqdwoyVvfP5w_B3d-3">
          <mxGeometry relative="1" as="geometry" />
        </mxCell>
        <mxCell id="OT2yoqdwoyVvfP5w_B3d-11" value="Search Title/ Content" style="rounded=0;whiteSpace=wrap;html=1;" vertex="1" parent="1">
          <mxGeometry x="160" y="240" width="230" height="60" as="geometry" />
        </mxCell>
        <mxCell id="OT2yoqdwoyVvfP5w_B3d-13" style="edgeStyle=orthogonalEdgeStyle;rounded=0;orthogonalLoop=1;jettySize=auto;html=1;exitX=1;exitY=0.5;exitDx=0;exitDy=0;entryX=0.609;entryY=0.049;entryDx=0;entryDy=0;entryPerimeter=0;" edge="1" parent="1" source="OT2yoqdwoyVvfP5w_B3d-11" target="OT2yoqdwoyVvfP5w_B3d-2">
          <mxGeometry relative="1" as="geometry" />
        </mxCell>
        <mxCell id="OT2yoqdwoyVvfP5w_B3d-15" value="LinkedListDict&lt;div&gt;(Search Content)&lt;/div&gt;" style="rounded=0;whiteSpace=wrap;html=1;" vertex="1" parent="1">
          <mxGeometry x="290" y="480" width="180" height="60" as="geometry" />
        </mxCell>
        <mxCell id="OT2yoqdwoyVvfP5w_B3d-19" style="edgeStyle=orthogonalEdgeStyle;rounded=0;orthogonalLoop=1;jettySize=auto;html=1;exitX=0.5;exitY=1;exitDx=0;exitDy=0;" edge="1" parent="1" source="OT2yoqdwoyVvfP5w_B3d-17" target="OT2yoqdwoyVvfP5w_B3d-11">
          <mxGeometry relative="1" as="geometry" />
        </mxCell>
        <mxCell id="OT2yoqdwoyVvfP5w_B3d-17" value="Load and process documents" style="rounded=0;whiteSpace=wrap;html=1;" vertex="1" parent="1">
          <mxGeometry x="180" y="150" width="200" height="60" as="geometry" />
        </mxCell>
        <mxCell id="OT2yoqdwoyVvfP5w_B3d-20" value="Show Results" style="rounded=0;whiteSpace=wrap;html=1;" vertex="1" parent="1">
          <mxGeometry x="210" y="585" width="190" height="60" as="geometry" />
        </mxCell>
        <mxCell id="OT2yoqdwoyVvfP5w_B3d-21" style="edgeStyle=orthogonalEdgeStyle;rounded=0;orthogonalLoop=1;jettySize=auto;html=1;entryX=0.442;entryY=0.092;entryDx=0;entryDy=0;entryPerimeter=0;" edge="1" parent="1" source="OT2yoqdwoyVvfP5w_B3d-6" target="OT2yoqdwoyVvfP5w_B3d-20">
          <mxGeometry relative="1" as="geometry" />
        </mxCell>
        <mxCell id="OT2yoqdwoyVvfP5w_B3d-22" style="edgeStyle=orthogonalEdgeStyle;rounded=0;orthogonalLoop=1;jettySize=auto;html=1;entryX=0.574;entryY=0.025;entryDx=0;entryDy=0;entryPerimeter=0;" edge="1" parent="1" source="OT2yoqdwoyVvfP5w_B3d-15" target="OT2yoqdwoyVvfP5w_B3d-20">
          <mxGeometry relative="1" as="geometry" />
        </mxCell>
      </root>
    </mxGraphModel>
  </diagram>
</mxfile>
